<svg width="32" height="32" viewBox="0 0 32 32" fill="none" xmlns="http://www.w3.org/2000/svg">
<g id="Royal Logo">
<path id="RCI_Crown+Anchor_Symbol_Navy_RGB 1" d="M4.7552 11.1048L4 3.28832L8.62843 6.6253L6.98947 8.44645L9.59323 10.2331L13.4989 8.4896L11.9928 6.55086L16 2.66797L20.0072 6.55086L18.5011 8.4896L22.4068 10.2331L25.0105 8.44645L23.3716 6.6253L28 3.28832L27.2448 11.1048H4.7552ZM4.89133 12.5138L5.14306 15.115H13.4794L13.4773 24.1139H9.42253C8.51823 24.1139 7.73602 23.417 7.73602 22.6057C7.73602 21.7943 8.59926 21.092 9.54893 20.5493L5.39047 17.6719L6.15648 25.5963L16 29.3346L25.8435 25.5963L26.6095 17.6719L22.4511 20.5493C23.4007 21.092 24.264 21.7943 24.264 22.6057C24.264 23.417 23.4818 24.1129 22.5775 24.1139H18.5227L18.5206 15.115H26.8569L27.1087 12.5138H4.89241H4.89133Z" fill="#001871"/>
</g>
</svg>
